<svg width="30" height="30" viewBox="0 0 30 30" fill="none" xmlns="http://www.w3.org/2000/svg">
<path d="M19.5001 15.0016C19.5001 16.195 19.026 17.3396 18.1821 18.1835C17.3382 19.0275 16.1936 19.5016 15.0001 19.5016C13.8066 19.5016 12.662 19.0275 11.8181 18.1835C10.9742 17.3396 10.5001 16.195 10.5001 15.0016C10.5001 14.7451 10.5271 14.4946 10.5736 14.2516H9.0001V20.2471C9.0001 20.6641 9.3376 21.0016 9.7546 21.0016H20.2471C20.4469 21.0012 20.6385 20.9215 20.7796 20.78C20.9208 20.6386 21.0001 20.4469 21.0001 20.2471V14.2516H19.4266C19.4731 14.4946 19.5001 14.7451 19.5001 15.0016ZM15.0001 18.0016C15.3942 18.0015 15.7843 17.9237 16.1484 17.7729C16.5124 17.622 16.8432 17.4008 17.1217 17.1221C17.4003 16.8434 17.6213 16.5126 17.772 16.1485C17.9227 15.7844 18.0002 15.3941 18.0001 15.0001C18 14.606 17.9223 14.2158 17.7714 13.8518C17.6205 13.4878 17.3994 13.157 17.1207 12.8784C16.842 12.5999 16.5111 12.3789 16.147 12.2282C15.7829 12.0775 15.3927 12 14.9986 12.0001C14.2027 12.0003 13.4396 12.3166 12.877 12.8795C12.3144 13.4424 11.9984 14.2057 11.9986 15.0016C11.9988 15.7974 12.3151 16.5606 12.878 17.1232C13.4409 17.6858 14.2042 18.0018 15.0001 18.0016ZM18.6001 11.8516H20.3986C20.5181 11.8516 20.6327 11.8042 20.7173 11.7199C20.802 11.6355 20.8497 11.521 20.8501 11.4016V9.60306C20.8501 9.48332 20.8025 9.36848 20.7179 9.2838C20.6332 9.19913 20.5183 9.15156 20.3986 9.15156H18.6001C18.4804 9.15156 18.3655 9.19913 18.2808 9.2838C18.1962 9.36848 18.1486 9.48332 18.1486 9.60306V11.4016C18.1501 11.6491 18.3526 11.8516 18.6001 11.8516ZM15.0001 0.601562C11.181 0.601563 7.51828 2.1187 4.81776 4.81922C2.11724 7.51975 0.600098 11.1824 0.600098 15.0016C0.600098 18.8207 2.11724 22.4834 4.81776 25.1839C7.51828 27.8844 11.181 29.4016 15.0001 29.4016C16.8911 29.4016 18.7637 29.0291 20.5107 28.3054C22.2578 27.5818 23.8453 26.5211 25.1824 25.1839C26.5196 23.8467 27.5803 22.2593 28.304 20.5122C29.0276 18.7651 29.4001 16.8926 29.4001 15.0016C29.4001 13.1105 29.0276 11.238 28.304 9.49092C27.5803 7.74383 26.5196 6.15639 25.1824 4.81922C23.8453 3.48206 22.2578 2.42137 20.5107 1.6977C18.7637 0.97403 16.8911 0.601563 15.0001 0.601562ZM22.5001 20.8351C22.5001 21.7516 21.7501 22.5016 20.8336 22.5016H9.1666C8.2501 22.5016 7.5001 21.7516 7.5001 20.8351V9.16806C7.5001 8.25156 8.2501 7.50156 9.1666 7.50156H20.8336C21.7501 7.50156 22.5001 8.25156 22.5001 9.16806V20.8351Z" fill="white"/>
</svg>
