<svg width="75" height="75" viewBox="0 0 75 75" fill="none" xmlns="http://www.w3.org/2000/svg">
<path d="M33.4495 0C25.3127 0 17.854 4.33187 12.0544 11.5278C13.9328 10.4331 15.9109 9.65827 17.9525 9.20953C19.36 8.90114 20.7963 8.74319 22.2373 8.73834C26.5711 8.71902 31.015 10.0393 35.2309 12.5579C46.3678 19.2115 56.0784 34.1465 59.3992 55.7788L51.6253 57.7636L63.3129 75L75 51.7963L66.8487 53.8774C66.9374 52.537 66.9902 51.1821 66.9902 49.8086C66.9902 22.3083 51.9193 0 33.45 0H33.4495ZM22.2596 11.6707C21.0136 11.677 19.7856 11.8121 18.5841 12.0763C13.793 13.1294 9.3408 16.2354 5.79175 21.7971C2.13783 29.7791 0 39.423 0 49.8081C0 52.3185 0.212273 54.7365 0.453321 57.1478C2.71552 35.9278 15.0297 19.6688 29.9141 19.6688C35.3724 19.6688 40.477 21.864 44.8649 25.6898C41.4673 20.9828 37.6453 17.4203 33.7225 15.0769C29.8957 12.7906 25.9973 11.6513 22.2594 11.6704L22.2596 11.6707Z" fill="white"/>
</svg>
