<svg width="60" height="33" viewBox="0 0 60 33" fill="none" xmlns="http://www.w3.org/2000/svg">
<path fill-rule="evenodd" clip-rule="evenodd" d="M35.9697 28.9034L54.088 16.5L35.9697 4.09657C35.7317 3.93369 35.5274 3.72428 35.3683 3.48029C35.2091 3.23631 35.0984 2.96253 35.0423 2.67459C34.9862 2.38665 34.9859 2.09018 35.0414 1.80212C35.0969 1.51406 35.2071 1.24004 35.3657 0.995717C35.6861 0.502278 36.1842 0.159728 36.7505 0.043423C37.0309 -0.0141652 37.3196 -0.0144759 37.6001 0.0425099C37.8807 0.0994956 38.1475 0.212662 38.3854 0.375546L58.9244 14.4361C59.2553 14.6626 59.5266 14.9695 59.7142 15.3296C59.9018 15.6896 60 16.0916 60 16.5C60 16.9084 59.9018 17.3104 59.7142 17.6704C59.5266 18.0305 59.2553 18.3374 58.9244 18.5639L38.3854 32.6245C38.1475 32.7873 37.8807 32.9005 37.6001 32.9575C37.3196 33.0145 37.0309 33.0142 36.7505 32.9566C36.4701 32.899 36.2035 32.7853 35.9659 32.6219C35.7283 32.4585 35.5243 32.2486 35.3657 32.0043C35.2071 31.76 35.0969 31.4859 35.0414 31.1979C34.9859 30.9098 34.9862 30.6134 35.0423 30.3254C35.0984 30.0375 35.2091 29.7637 35.3683 29.5197C35.5274 29.2757 35.7317 29.0663 35.9697 28.9034Z" fill="#052867"/>
<path fill-rule="evenodd" clip-rule="evenodd" d="M24.0303 28.9034L5.91196 16.5L24.0303 4.09657C24.2683 3.93369 24.4726 3.72428 24.6317 3.48029C24.7909 3.23631 24.9016 2.96253 24.9577 2.67459C25.0138 2.38665 25.0141 2.09018 24.9586 1.80212C24.9031 1.51406 24.7929 1.24004 24.6343 0.995717C24.3139 0.502278 23.8158 0.159728 23.2495 0.043423C22.9691 -0.0141652 22.6804 -0.0144759 22.3999 0.0425099C22.1193 0.0994956 21.8525 0.212662 21.6146 0.375546L1.07556 14.4361C0.744702 14.6626 0.473422 14.9695 0.285795 15.3296C0.0981682 15.6896 2.03734e-07 16.0916 2.03734e-07 16.5C2.03734e-07 16.9084 0.0981682 17.3104 0.285795 17.6704C0.473422 18.0305 0.744702 18.3374 1.07556 18.5639L21.6146 32.6245C21.8525 32.7873 22.1193 32.9005 22.3999 32.9575C22.6804 33.0145 22.9691 33.0142 23.2495 32.9566C23.5299 32.899 23.7965 32.7853 24.0341 32.6219C24.2717 32.4585 24.4757 32.2486 24.6343 32.0043C24.7929 31.76 24.9031 31.4859 24.9586 31.1979C25.0141 30.9098 25.0138 30.6134 24.9577 30.3254C24.9016 30.0375 24.7909 29.7637 24.6317 29.5197C24.4726 29.2757 24.2683 29.0663 24.0303 28.9034Z" fill="#052867"/>
</svg>
