<svg width="55" height="52" viewBox="0 0 55 52" fill="none" xmlns="http://www.w3.org/2000/svg">
<path d="M44.9791 2.15513C46.0586 1.32373 47.4038 0.913629 48.7635 1.00141C50.1233 1.08918 51.4046 1.66883 52.3682 2.63213C53.3319 3.59542 53.912 4.87652 54.0003 6.23622C54.0886 7.59593 53.679 8.94129 52.8481 10.0211L40.7581 25.8311C37.3548 30.2811 33.0155 33.929 28.0471 36.5171C27.4327 34.2237 26.2254 32.1325 24.5466 30.4536C22.8677 28.7748 20.7765 27.5675 18.4831 26.9531C21.0716 21.9858 24.7195 17.6476 29.1691 14.2451L44.9791 2.15513ZM15.0001 31.0001C12.6131 31.0001 10.3239 31.9483 8.6361 33.6362C6.94827 35.324 6.00006 37.6132 6.00006 40.0001C6.00057 40.255 5.93611 40.5059 5.81275 40.729C5.6894 40.9521 5.51123 41.14 5.29506 41.2751C5.07889 41.4102 4.83186 41.488 4.57728 41.5011C4.3227 41.5143 4.06897 41.4623 3.84006 41.3501C3.43683 41.152 2.98352 41.0792 2.53852 41.1409C2.09352 41.2027 1.6772 41.3963 1.34318 41.6967C1.00916 41.9972 0.772732 42.3908 0.664352 42.8268C0.555971 43.2628 0.580598 43.7212 0.735059 44.1431C1.7091 46.7852 3.58101 49.0006 6.02337 50.402C8.46573 51.8035 11.323 52.3016 14.0955 51.8093C16.868 51.317 19.3792 49.8656 21.1898 47.7091C23.0004 45.5525 23.9951 42.828 24.0001 40.0121V40.0001C23.9971 38.3281 23.53 36.6896 22.6507 35.2674C21.7714 33.8452 20.5145 32.6951 19.0201 31.9451C17.7718 31.3218 16.3953 30.9982 15.0001 31.0001Z" fill="#052867"/>
</svg>
