<svg width="30" height="30" viewBox="0 0 30 30" fill="none" xmlns="http://www.w3.org/2000/svg">
<path d="M10.56 29.312C12 29.747 13.455 30.002 15 30.002C18.9782 30.002 22.7936 28.4216 25.6066 25.6086C28.4196 22.7955 30 18.9802 30 15.002C30 13.0321 29.612 11.0816 28.8582 9.2617C28.1044 7.44182 26.9995 5.78823 25.6066 4.39535C24.2137 3.00247 22.5601 1.89758 20.7403 1.14376C18.9204 0.38994 16.9698 0.00195313 15 0.00195312C13.0302 0.00195313 11.0796 0.38994 9.25975 1.14376C7.43986 1.89758 5.78628 3.00247 4.3934 4.39535C1.58035 7.2084 0 11.0237 0 15.002C0 21.377 4.005 26.852 9.66 29.012C9.525 27.842 9.39 25.907 9.66 24.572L11.385 17.162C11.385 17.162 10.95 16.292 10.95 14.912C10.95 12.842 12.24 11.297 13.71 11.297C15 11.297 15.6 12.242 15.6 13.457C15.6 14.747 14.745 16.592 14.31 18.362C14.055 19.832 15.09 21.122 16.59 21.122C19.26 21.122 21.33 18.272 21.33 14.252C21.33 10.652 18.75 8.19195 15.045 8.19195C10.815 8.19195 8.325 11.342 8.325 14.657C8.325 15.947 8.745 17.252 9.435 18.107C9.57 18.197 9.57 18.317 9.525 18.542L9.09 20.177C9.09 20.432 8.925 20.522 8.67 20.342C6.75 19.502 5.64 16.772 5.64 14.567C5.64 9.82695 9 5.52195 15.48 5.52195C20.64 5.52195 24.66 9.22695 24.66 14.147C24.66 19.307 21.465 23.447 16.89 23.447C15.435 23.447 14.01 22.667 13.5 21.752L12.495 25.307C12.15 26.597 11.205 28.322 10.56 29.357V29.312Z" fill="white"/>
</svg>
