<svg width="30" height="30" viewBox="0 0 30 30" fill="none" xmlns="http://www.w3.org/2000/svg">
<path d="M15 0.00195312C23.2929 0.00195312 30 6.7091 30 15.002C30 23.2948 23.2929 30.002 15 30.002C6.70714 30.002 0 23.2948 0 15.002C0 6.7091 6.70714 0.00195312 15 0.00195312ZM12.2571 22.9091C18.9 22.9091 22.5429 17.402 22.5429 12.6234V12.152C23.25 11.6377 23.8714 10.9948 24.3429 10.2662C23.7 10.5448 22.9929 10.7377 22.2643 10.8448C23.0143 10.3948 23.5929 9.68767 23.85 8.85195C23.1429 9.2591 22.3714 9.5591 21.5571 9.73052C20.8929 9.02338 19.95 8.59481 18.9214 8.59481C16.9286 8.59481 15.3 10.2234 15.3 12.2162C15.3 12.4948 15.3214 12.7734 15.4071 13.0305C12.4071 12.8805 9.72857 11.4448 7.95 9.2591C7.65 9.79481 7.45714 10.4162 7.45714 11.0805C7.45714 12.3234 8.1 13.4377 9.06429 14.0805C8.46429 14.0805 7.90714 13.9091 7.43571 13.6305V13.6734C7.43571 15.4305 8.67857 16.8877 10.3286 17.2305C10.0286 17.3162 9.70714 17.3591 9.38571 17.3591C9.15 17.3591 8.93571 17.3377 8.7 17.2948C9.15 18.7305 10.5 19.7805 12.0643 19.802C10.8214 20.7662 9.25714 21.3448 7.56429 21.3448C7.26429 21.3448 6.98571 21.3448 6.70714 21.302C8.29286 22.3305 10.2 22.9305 12.2357 22.9305" fill="white"/>
</svg>
